<?xml version="1.0" encoding="UTF-8" standalone="no"?>
<!-- Created with Inkscape (http://www.inkscape.org/) -->

<svg
   width="809.96313"
   height="164.64836"
   viewBox="0 0 809.96313 164.64836"
   version="1.1"
   id="svg1"
   xml:space="preserve"
   xmlns:xlink="http://www.w3.org/1999/xlink"
   xmlns="http://www.w3.org/2000/svg"
   xmlns:svg="http://www.w3.org/2000/svg"><defs
     id="defs1"><linearGradient
       id="swatch43"><stop
         style="stop-color:#600348;stop-opacity:1;"
         offset="0"
         id="stop43" /></linearGradient><linearGradient
       id="swatch28"><stop
         style="stop-color:#e67373;stop-opacity:1;"
         offset="0"
         id="stop28" /></linearGradient><linearGradient
       id="swatch13"
       gradientTransform="matrix(1.3640134,0,0,0.87750457,10.29575,65.157601)"><stop
         style="stop-color:#922f6e;stop-opacity:1;"
         offset="0"
         id="stop13" /></linearGradient><linearGradient
       id="swatch11"><stop
         style="stop-color:#e4638b;stop-opacity:1;"
         offset="0"
         id="stop11" /></linearGradient><linearGradient
       id="swatch9"
       gradientTransform="translate(2.0744298)"><stop
         style="stop-color:#edb8b0;stop-opacity:1;"
         offset="0"
         id="stop9" /></linearGradient><linearGradient
       xlink:href="#swatch28"
       id="linearGradient28"
       x1="652.44257"
       y1="274.31891"
       x2="727.4079"
       y2="274.31891"
       gradientUnits="userSpaceOnUse" /><linearGradient
       xlink:href="#swatch43"
       id="linearGradient43"
       x1="366.79703"
       y1="281.66174"
       x2="461.2449"
       y2="281.66174"
       gradientUnits="userSpaceOnUse" /></defs><g
     id="layer1"
     transform="translate(-71.300598,-67.582657)"><g
       id="g43"
       transform="translate(-143.82713,-137.37335)"><path
         style="fill:url(#swatch13);fill-opacity:1;stroke:url(#swatch43)"
         d="m 788.64412,180.10942 c -11.16445,3.19894 -28.13345,10.02549 -37.11608,23.32153 -8.98262,13.29604 -9.97886,33.06152 -6.46734,45.93961 3.51151,12.87809 11.53076,18.86876 12.79592,22.55265 1.26515,3.6839 -4.2238,5.06101 -9.17124,10.56863 -4.94744,5.50762 -9.35337,15.14575 -10.65507,26.00909 -1.30171,10.86333 0.50082,22.95186 4.12815,32.30598 3.62734,9.35412 9.0795,15.97383 14.14146,21.45824 5.06196,5.4844 9.73372,9.83351 19.99635,12.00981 10.26262,2.1763 26.11609,2.1798 38.8821,-2.36732 12.76601,-4.54711 22.4445,-13.64483 27.10063,-26.59208 4.65612,-12.94725 4.28986,-29.74401 2.12143,-41.60221 -2.16844,-11.8582 -6.13905,-18.77784 -11.93229,-24.2144 -5.79324,-5.43657 -13.40911,-9.39006 -21.41736,-13.47056 -8.00824,-4.0805 -16.40887,-8.28802 -22.32958,-12.29341 -5.92071,-4.0054 -9.3615,-7.80868 -11.05894,-12.50501 -1.69745,-4.69633 -1.65157,-10.28571 -0.20206,-14.52384 1.44951,-4.23812 4.30264,-7.12499 8.58623,-8.17622 4.28359,-1.05123 9.99762,-0.26683 14.2323,1.83238 4.23467,2.09921 6.98999,5.51322 9.70636,10.69803 2.71638,5.18481 5.39382,12.14042 13.87186,11.34607 8.47804,-0.79436 22.75664,-9.33868 25.72641,-15.72091 2.96977,-6.38222 -5.36931,-10.60235 -10.99498,-14.8308 -5.62567,-4.22845 -8.53793,-8.46524 -12.76237,-14.14778 -4.22444,-5.68253 -9.76105,-12.81081 -15.2093,-16.58928 -5.44825,-3.77848 -10.80814,-4.20714 -21.97259,-1.0082 z"
         id="path39"
         transform="matrix(0.77405663,0,0,0.71689965,167.49263,77.811405)" /><path
         style="fill:url(#swatch13);stroke:url(#swatch43)"
         d="m 264.5438,213.02486 c -2.40259,-4.33335 -4.69372,-6.28781 -9.76936,-5.93416 -5.07563,0.35364 -12.93501,3.01605 -16.42857,7.0448 -3.49356,4.02875 -2.62129,9.42385 0.16595,18.36411 2.78724,8.94026 7.48946,21.42568 13.82743,35.6309 6.33798,14.20522 14.31171,30.13025 20.15074,40.97781 5.83902,10.84757 9.54334,16.61768 12.9312,21.28865 3.38785,4.67097 6.45924,8.24279 12.81911,8.34259 6.35988,0.0998 16.00822,-3.27242 21.32158,-8.51085 5.31336,-5.23842 6.29172,-12.34305 15.38195,-32.56794 9.09022,-20.22489 26.29227,-53.56995 31.24844,-72.25661 4.95617,-18.68666 -2.3336,-22.71471 -9.61081,-23.07057 -7.27721,-0.35586 -14.5418,2.96045 -18.43724,5.89026 -3.89544,2.92981 -4.42159,5.473 -7.23291,12.68559 -2.81132,7.21258 -7.90729,19.09333 -10.72647,25.57839 -2.81918,6.48505 -3.36045,7.57187 -6.49685,8.17677 -3.13641,0.6049 -8.86759,0.72771 -14.62499,0.90001 -5.75741,0.1723 -11.54176,0.39412 -14.52125,0.27024 -2.97948,-0.12387 -3.15539,-0.59341 -4.78386,-4.8286 -1.62846,-4.23519 -4.70926,-12.23544 -7.50465,-19.58769 -2.79539,-7.35225 -5.30684,-14.06035 -7.70944,-18.3937 z"
         id="path37"
         transform="translate(-20.430321,11.611176)" /><path
         style="fill:#922f6e;fill-opacity:1;stroke:url(#linearGradient43);stroke-opacity:1"
         d="m 446.76527,226.22413 c -6.98062,-6.55157 -29.22756,-11.78777 -44.18262,-10.76785 -14.95506,1.01991 -22.61816,8.29593 -27.8233,15.81923 -5.20513,7.52331 -7.9523,15.29389 -7.39005,22.61831 0.56225,7.32443 4.43392,14.20271 8.02674,19.21348 3.59282,5.01078 6.9068,8.15406 6.55421,12.06508 -0.35259,3.91102 -4.37176,8.58979 -7.54639,13.46642 -3.17463,4.87662 -5.50472,9.9511 -4.94993,16.03828 0.55479,6.08718 3.99446,13.18704 9.83114,19.58337 5.83668,6.39634 14.07037,12.08915 23.5113,13.41438 9.44094,1.32524 20.08914,-1.71711 28.27106,-4.79493 8.18193,-3.07782 13.8976,-6.19113 18.2272,-9.49596 4.32961,-3.30483 7.27316,-6.80117 9.40334,-12.4631 2.13018,-5.66192 3.447,-13.4894 -0.44879,-17.08996 -3.89578,-3.60056 -13.00415,-2.9742 -19.05236,0.4085 -6.04821,3.38269 -9.03622,9.52169 -15.36538,12.94432 -6.32916,3.42264 -15.99945,4.12889 -19.62195,2.46725 -3.62251,-1.66165 -1.19721,-5.69121 0.0173,-10.77531 1.21451,-5.08411 1.21825,-11.22274 3.66794,-13.61435 2.44969,-2.3916 7.34532,-1.03616 13.59151,-1.14113 6.2462,-0.10498 13.84294,-1.67037 18.21592,-2.98229 4.37298,-1.31192 5.5222,-2.37036 7.63836,-7.10702 2.11617,-4.73667 5.19927,-13.15156 0.91951,-15.67463 -4.27976,-2.52307 -15.92236,0.84567 -24.61217,2.86596 -8.6898,2.02028 -14.42676,2.69211 -18.94291,-0.27358 -4.51615,-2.96568 -7.81149,-9.56887 -8.19131,-14.49021 -0.37982,-4.92134 2.15587,-8.1608 5.17957,-10.15228 3.0237,-1.99148 6.5354,-2.73496 11.40344,-1.64925 4.86804,1.08571 11.09239,4.00061 15.33606,4.94315 4.24368,0.94255 6.50666,-0.0873 8.76964,-1.1171 8.31097,-7.89083 16.54354,-15.70722 9.56291,-22.25878 z"
         id="path35"
         transform="translate(-14.988776,14.099571)" /><path
         style="fill:url(#swatch28);stroke:url(#swatch43)"
         d="m 262.79532,214.36985 c -4.15108,-2.98836 -9.93684,-2.25464 -16.2282,-1.48916 -6.29136,0.76548 -13.0864,1.56247 -12.48095,10.4894 0.60546,8.92693 8.61139,25.98377 16.60123,42.47471 7.98983,16.49093 15.96356,32.41595 22.57957,45.11666 6.61602,12.70071 11.87433,22.1771 17.9351,26.66016 6.06077,4.48305 12.92401,3.97277 18.99607,-1.33288 6.07206,-5.30566 11.35294,-15.40668 22.59443,-37.12977 11.24148,-21.72309 28.44353,-55.06815 33.95656,-71.97558 5.51303,-16.90743 -0.66303,-17.37703 -7.94021,-17.73289 -7.27719,-0.35586 -15.65553,-0.59797 -20.10783,0.55259 -4.45231,1.15057 -4.97846,3.69376 -7.78978,10.90635 -2.81132,7.21258 -7.90729,19.09333 -10.72647,25.57839 -2.81918,6.48505 -3.36045,7.57187 -6.49685,8.17677 -3.13641,0.6049 -8.86759,0.72771 -14.62499,0.90001 -5.75741,0.1723 -11.54176,0.39412 -14.52125,0.27024 -2.97948,-0.12387 -3.15539,-0.59341 -4.78386,-4.8286 -1.62846,-4.23519 -4.70926,-12.23544 -7.50465,-19.58769 -2.79539,-7.35225 -5.30684,-14.06035 -9.45792,-17.04871 z"
         id="path1"
         transform="translate(-9.673469,4.7659064)" /><path
         style="fill:url(#swatch43);fill-opacity:1;stroke:url(#swatch43)"
         d="m 312.15418,275.20779 c -3.25456,-2.4136 -11.85794,-2.29167 -17.94678,-1.79227 -6.08884,0.4994 -9.66313,1.37627 -8.88303,6.51943 0.78009,5.14315 5.91457,14.55258 9.37195,19.39292 3.45738,4.84033 5.23768,5.11157 7.71214,2.38201 2.47446,-2.72955 5.64308,-8.45989 8.27453,-13.79962 2.63146,-5.33974 4.72574,-10.28887 1.47119,-12.70247 z"
         id="path2"
         transform="translate(-9.673469,4.7659064)" /><path
         style="fill:#e67373;fill-opacity:1;stroke:url(#swatch43)"
         d="m 441.55452,234.6133 c -4.37757,-5.75938 -16.19366,-13.46748 -28.56815,-15.04171 -12.3745,-1.57424 -25.30737,2.98542 -33.90798,9.66664 -8.6006,6.68123 -12.86894,15.48404 -13.01295,24.19382 -0.144,8.70977 3.83631,17.32653 7.78226,22.47312 3.94595,5.14659 7.85754,6.82303 7.80375,10.00063 -0.0538,3.1776 -4.07296,7.85637 -7.24759,12.733 -3.17463,4.87662 -5.50472,9.9511 -4.94993,16.03828 0.55479,6.08718 3.99446,13.18704 9.83114,19.58337 5.83668,6.39634 14.07037,12.08915 23.5113,13.41438 9.44094,1.32524 20.08914,-1.71711 29.13352,-6.90691 9.04437,-5.18981 16.48493,-12.52708 19.29984,-17.36883 2.81492,-4.84174 1.00418,-7.18795 -2.28228,-10.4247 -3.28646,-3.23675 -8.04863,-7.36404 -11.92373,-6.35818 -3.87511,1.00586 -6.86312,7.14486 -13.19228,10.56749 -6.32916,3.42264 -15.99945,4.12889 -21.59132,1.78815 -5.59188,-2.34074 -7.10533,-7.72848 -6.2711,-12.37797 0.83423,-4.64948 4.01613,-8.56069 8.06849,-10.58559 4.05237,-2.02489 8.97517,-2.16345 13.57432,-2.28529 4.59914,-0.12184 8.87462,-0.22695 13.0397,-0.69727 4.16508,-0.47031 8.21976,-1.30583 9.92113,-4.76593 1.70138,-3.4601 1.04945,-9.54478 -2.6557,-12.59707 -3.70514,-3.05229 -10.4635,-3.07219 -16.71118,-2.74623 -6.24767,0.32596 -11.98463,0.99779 -16.50078,-1.9679 -4.51615,-2.96568 -7.81149,-9.56887 -8.19131,-14.49021 -0.37982,-4.92134 2.15587,-8.1608 5.17957,-10.15228 3.0237,-1.99148 6.5354,-2.73496 11.75657,-0.91583 5.22117,1.81914 12.15178,6.20088 16.83008,7.06193 4.67829,0.86105 7.10425,-1.7986 9.53021,-4.45825 3.06098,-3.81064 6.12196,-7.62127 1.7444,-13.38066 z"
         id="path3"
         transform="translate(-5.9927967,2.7659064)" /><g
         id="g41"><path
           style="fill:url(#swatch13);fill-opacity:1;stroke:url(#swatch43)"
           d="m 482.41214,242.77117 c -5.70509,3.48037 -15.86181,14.7048 -17.79578,21.50202 -1.93398,6.79722 4.35477,9.16724 10.03892,11.09836 5.68415,1.93112 13.50888,4.22981 14.00825,5.10098 0.49937,0.87117 -3.9776,4.41275 -8.37973,8.37479 -4.40213,3.96205 -10.3001,9.58708 -11.73264,14.04736 -1.43254,4.46027 1.60035,7.75581 5.72595,10.61323 4.1256,2.85743 9.3439,5.27673 13.9435,4.52274 4.59961,-0.75399 8.5805,-4.68128 13.82728,-9.7965 5.24678,-5.11522 11.75944,-11.41836 16.79532,-16.37568 5.03588,-4.95733 8.59499,-8.56883 8.03965,-11.98446 -0.55533,-3.41563 -5.2251,-6.63538 -11.95395,-11.94537 -6.72885,-5.30998 -15.51678,-12.71021 -20.53749,-18.54217 -5.0207,-5.83196 -6.27418,-10.09566 -11.97928,-6.6153 z"
           id="path33"
           transform="translate(-18.649513,22.113681)" /><path
           style="fill:#e67373;fill-opacity:1;stroke:url(#swatch43)"
           d="m 476.57301,248.22615 c -5.70509,3.48037 -12.94224,11.97731 -13.41644,17.41078 -0.47419,5.43348 5.81456,7.8035 11.7292,10.17639 5.91464,2.3729 11.45517,4.74869 11.90795,8.00808 0.45277,3.2594 -4.18222,7.40241 -9.04534,11.9791 -4.86311,4.5767 -9.95435,9.58708 -10.81066,13.20222 -0.85631,3.61514 2.52232,5.83505 6.24455,8.21228 3.72224,2.37722 7.78808,4.91178 12.44531,3.63918 4.65722,-1.2726 9.90582,-6.35235 15.78646,-12.0438 5.88063,-5.69145 12.39329,-11.99459 17.42917,-16.95191 5.03588,-4.95733 8.59499,-8.56883 8.03965,-11.98446 -0.55533,-3.41563 -5.2251,-6.63538 -11.95395,-11.94537 -6.72885,-5.30998 -15.51678,-12.71021 -21.99727,-17.17842 -6.48049,-4.46822 -10.65353,-6.00443 -16.35863,-2.52407 z"
           id="path4"
           transform="translate(-8.3999768,12.805305)" /><path
           style="fill:url(#swatch9);fill-opacity:1;stroke:none;stroke-opacity:1"
           d="m 406.2158,230.83287 c -3.54593,-1.03215 -10.4607,-1.03215 -14.66662,0.64687 -4.20591,1.67903 -5.70298,5.03708 -2.15705,6.06923 3.54594,1.03216 12.13487,-0.26158 16.34079,-1.9406 4.20592,-1.67903 4.02881,-3.74334 0.48288,-4.7755 z"
           id="path52-7"
           transform="matrix(0.56636111,0.0418897,0.24517389,-0.84065985,193.60036,449.94348)" /></g><g
         id="g42"
         style="stroke:url(#swatch43)"><path
           style="fill:url(#swatch13);fill-opacity:1;stroke:url(#swatch43)"
           d="m 564.44501,211.37923 c -10.70194,1.72902 -21.16746,9.83512 -27.21441,18.67319 -6.04696,8.83807 -7.67535,18.4081 -8.02388,30.71302 -0.34854,12.30492 0.58278,27.34472 2.64583,39.13332 2.06305,11.78861 5.25783,20.32602 9.30984,26.82923 4.05201,6.5032 8.96123,10.97217 17.10005,13.70926 8.13882,2.73708 19.50718,3.74228 29.78367,0.52037 10.27649,-3.2219 19.46104,-10.67088 23.84947,-21.14019 4.38844,-10.46931 3.98073,-23.9589 2.4412,-38.23179 -1.53954,-14.27289 -4.2109,-29.32906 -7.28507,-39.89949 -3.07416,-10.57043 -6.55113,-16.65512 -13.75878,-22.0215 -7.20765,-5.36638 -18.14598,-10.01444 -28.84792,-8.28542 z"
           id="path31"
           transform="matrix(1.0508394,0,0,1,-36.3204,5.0380672)" /><path
           style="fill:url(#swatch28);fill-opacity:1;stroke:url(#swatch43);stroke-width:0.97551;stroke-dasharray:none;stroke-opacity:1"
           d="m 560.26759,214.78129 c -11.36991,2.05786 -21.41662,9.28501 -26.48613,22.18561 -5.0695,12.9006 -5.16178,31.4746 -3.53741,46.79742 1.62437,15.32281 4.96537,27.39444 9.38295,36.58672 4.41758,9.19228 9.91171,15.50518 16.73448,19.12582 6.82277,3.62064 14.97414,4.54901 23.56901,2.51798 8.59487,-2.03102 17.6332,-7.02143 23.63013,-17.45232 5.99694,-10.43089 8.95246,-26.30224 9.09454,-41.76601 0.14208,-15.46376 -2.52928,-30.51993 -5.60345,-41.09036 -3.07416,-10.57043 -6.55113,-16.65512 -14.63614,-21.25319 -8.08502,-4.59807 -20.77807,-7.70952 -32.14798,-5.65167 z"
           id="path5"
           transform="matrix(1.0508394,0,0,1,-26.909766,0)" /><path
           style="fill:url(#swatch43);stroke:url(#swatch43)"
           d="m 569.27451,247.02258 c -5.14851,0.0614 -9.92645,2.11891 -12.33474,6.81271 -2.40829,4.69381 -2.19816,11.81445 -1.3637,18.62511 0.83445,6.81066 2.47612,14.62285 5.76614,19.33668 3.29001,4.71382 8.31221,6.72832 13.07911,5.18114 4.7669,-1.54718 9.76481,-7.20674 11.39096,-14.82348 1.62614,-7.61674 0.74432,-19.79521 -2.47274,-26.49338 -3.21705,-6.69816 -8.91652,-8.7002 -14.06503,-8.63878 z"
           id="path6"
           transform="matrix(1.2512003,0,0,1.4085326,-140.50364,-104.06058)" /><path
           id="path68"
           style="fill:url(#swatch13);stroke:url(#swatch43)"
           d="m 569.27469,247.02237 c -2.85618,0.0341 -5.59783,0.68301 -7.88462,2.055 -2.24292,4.69366 -2.02424,11.65033 -1.20821,18.31056 0.83446,6.81065 2.47632,14.62284 5.76634,19.33666 3.29001,4.71383 8.31116,6.72766 13.07806,5.18048 1.20494,-0.39108 2.42496,-1.04425 3.60123,-1.92604 1.42601,-2.23341 2.55652,-4.88362 3.18445,-7.8248 1.62614,-7.61674 0.74442,-19.79494 -2.47263,-26.4931 -3.21705,-6.69817 -8.91611,-8.70018 -14.06462,-8.63876 z"
           transform="matrix(1.2512003,0,0,1.4085326,-146.26594,-96.915322)" /></g><path
         style="fill:url(#swatch13);fill-opacity:1;stroke:url(#swatch43)"
         d="m 654.88143,208.67324 c -2.62509,2.99934 -2.62509,6.20688 -2.32901,9.7588 0.29608,3.55193 0.98475,8.8612 1.61252,11.82665 0.62776,2.96546 1.21121,4.02216 6.9389,3.92857 5.72769,-0.0936 25.75202,-1.8778 31.38016,-1.99064 5.62813,-0.11284 6.57188,0.90571 7.87102,4.43589 1.29914,3.53018 2.65646,8.6233 -1.57263,10.59807 -4.22909,1.97477 -17.70505,1.25884 -24.55203,2.28552 -6.84698,1.02669 -10.96414,4.34085 -12.20979,8.38994 -1.24564,4.0491 -0.53041,11.24943 0.0622,15.65699 0.59259,4.40755 1.28223,7.43735 6.44646,7.83271 5.16423,0.39537 26.40229,-1.78759 30.61793,-0.96382 4.21564,0.82376 3.90402,6.10709 3.84702,10.09396 -0.057,3.98686 0.11272,9.94249 -1.99678,10.13527 -2.10951,0.19279 -14.58128,-5.09772 -20.07007,-5.70577 -5.48879,-0.60805 -10.21708,1.5068 -13.738,3.41756 -3.52092,1.91075 -5.85851,3.62154 -5.89434,9.21674 -0.0358,5.5952 2.82789,20.786 6.01525,25.27434 3.18735,4.48834 10.53847,4.76292 17.27146,4.96308 6.733,0.20017 14.21012,0.37621 22.48345,-0.43676 8.27333,-0.81296 19.11001,-2.94287 23.58567,-7.06566 4.47566,-4.12279 6.32932,-13.66996 5.26949,-30.24959 -1.05984,-16.57962 -4.79183,-41.91598 -6.61954,-58.25404 -1.82771,-16.33807 -1.77811,-25.63698 -9.24041,-30.31857 -7.4623,-4.68159 -32.44488,-10.40539 -43.94005,-10.55468 -11.49517,-0.14929 -18.61377,4.7261 -21.23886,7.72544 z"
         id="path23"
         transform="translate(-11.082816,8.475095)" /><path
         style="fill:url(#linearGradient28);fill-opacity:1;stroke:url(#swatch43);stroke-opacity:1"
         d="m 656.60792,210.28029 c -4.35158,0.89762 -4.35158,4.59983 -4.0555,8.15175 0.29608,3.55193 0.98475,8.8612 1.61252,11.82665 0.62776,2.96546 1.21121,4.02216 6.9389,3.92857 5.72769,-0.0936 25.75202,-1.8778 31.20897,-0.46549 5.45696,1.41231 5.91502,6.75805 6.54911,11.26364 0.63408,4.5056 1.29889,7.32939 -3.00176,8.75392 -4.30066,1.42453 -16.49075,1.92249 -23.37972,2.56653 -6.88897,0.64403 -10.95916,1.73603 -11.77705,4.12838 -0.8179,2.39236 0.43271,9.49823 1.20278,13.51927 0.77007,4.02103 1.45881,7.04687 6.62304,7.44223 5.16423,0.39537 26.40229,-1.78759 30.61793,-0.96382 4.21564,0.82376 3.90402,6.10709 3.84702,10.09396 -0.057,3.98686 0.0941,9.28922 -3.36766,10.74988 -3.46177,1.46065 -16.46178,1.58343 -23.75391,1.70459 -7.29213,0.12117 -13.37518,0.31746 -14.40961,4.33576 -1.03442,4.01829 1.33265,22.53663 4.56735,27.06135 3.2347,4.52473 11.97522,4.70932 19.01235,4.64062 7.03713,-0.0687 14.13855,-0.35682 21.06782,-1.47409 6.92928,-1.11726 15.26902,-3.48891 18.04712,-7.40128 2.77811,-3.91237 2.82818,-13.30179 2.91655,-29.87121 0.0884,-16.56943 0.2234,-41.88649 0.31119,-58.34843 0.0878,-16.46193 0.14014,-26.27616 -4.35646,-29.03442 -4.49661,-2.75827 -20.89559,-2.97125 -33.44525,-3.13423 -12.54966,-0.16298 -28.62416,-0.37174 -32.97573,0.52587 z"
         id="path7" /><path
         style="fill:#e67373;fill-opacity:1;stroke:url(#swatch43)"
         d="m 791.41243,183.67357 c -13.93276,-0.36521 -30.90176,6.46134 -39.88439,19.75738 -8.98262,13.29604 -9.97886,33.06152 -6.46734,45.93961 3.51151,12.87809 11.53076,18.86876 12.79592,22.55265 1.26515,3.6839 -4.2238,5.06101 -9.17124,10.56863 -4.94744,5.50762 -9.35337,15.14575 -10.65507,26.00909 -1.30171,10.86333 0.50082,22.95186 4.69888,33.43127 4.19807,10.47942 10.79169,19.34972 20.75305,26.20231 9.96136,6.85259 23.29044,11.68748 37.07717,7.33226 13.78672,-4.35521 28.03105,-17.90052 35.71452,-32.2142 7.68347,-14.31367 8.80607,-29.3957 7.38207,-40.39654 -1.42401,-11.00083 -5.39462,-17.92047 -11.18786,-23.35703 -5.79324,-5.43657 -13.40911,-9.39006 -21.41736,-13.47056 -8.00824,-4.0805 -16.40887,-8.28802 -22.32958,-12.29341 -5.92071,-4.0054 -9.3615,-7.80868 -11.05894,-12.50501 -1.69745,-4.69633 -1.65157,-10.28571 -0.20206,-14.52384 1.44951,-4.23812 4.30264,-7.12499 8.58623,-8.17622 4.28359,-1.05123 9.99762,-0.26683 14.2323,1.83238 4.23467,2.09921 6.98999,5.51322 9.70636,10.69803 2.71638,5.18481 5.39382,12.14042 11.20481,11.42185 5.81099,-0.71858 14.7555,-9.11133 17.72527,-15.49356 2.96977,-6.38223 -0.0352,-10.75391 -2.99384,-15.05815 -2.95862,-4.30423 -5.87088,-8.54102 -12.77526,-14.4379 -6.90439,-5.89688 -17.80089,-13.45384 -31.73364,-13.81904 z"
         id="path8"
         transform="matrix(0.77405663,0,0,0.71689965,179.70193,73.648975)" /><path
         style="fill:url(#swatch13);fill-opacity:1;stroke:url(#swatch43)"
         d="m 618.75735,324.62955 c -5.44151,3.91963 -10.54088,10.14569 -11.14836,14.77295 -0.60748,4.62726 3.27693,7.65568 4.58407,10.16051 1.30714,2.50483 0.037,4.48604 -2.70428,6.64132 -2.74127,2.15528 -6.95368,4.48462 -8.77549,6.83106 -1.82181,2.34644 -1.25304,4.70998 1.69086,7.08592 2.94389,2.37594 8.2629,4.76427 14.74661,5.03263 6.48371,0.26836 14.13211,-1.58325 19.31837,-5.18648 5.18626,-3.60322 7.91037,-8.95804 11.43107,-16.58487 3.52069,-7.62684 7.83795,-17.52565 5.94836,-23.8875 -1.88958,-6.36185 -9.98601,-9.1867 -16.92604,-9.79253 -6.94003,-0.60583 -12.72366,1.00736 -18.16517,4.92699 z"
         id="path13"
         transform="matrix(0.79172748,-0.15027199,0.15027199,0.79172748,74.377886,164.67105)" /><path
         style="fill:url(#swatch43);stroke:#600348;stroke-opacity:1"
         d="m 567.86001,248.34809 c -4.73991,3.15016 -8.25765,12.0674 -8.76699,18.96822 -0.50933,6.90081 1.73723,15.20624 4.99785,20.23709 3.26062,5.03085 7.7584,7.61195 11.98747,4.96754 4.22907,-2.64441 7.94357,-10.02581 9.58983,-18.07753 1.64626,-8.05173 0.55636,-17.29081 -3.10024,-22.40249 -3.6566,-5.11168 -9.96801,-6.84298 -14.70792,-3.69283 z"
         id="path19"
         transform="matrix(1.3640134,0,0,0.87750457,10.524272,64.596346)" /><path
         style="fill:url(#swatch28);fill-opacity:1;stroke:url(#swatch43)"
         d="m 625.97481,321.7429 c -8.27663,0.84513 -16.61575,7.52374 -18.49358,13.21995 -1.87783,5.6962 2.70564,10.40998 4.3623,13.75749 1.65667,3.3475 0.38653,5.32871 -2.53731,7.93455 -2.92383,2.60584 -7.50136,5.83629 -9.32317,8.18273 -1.82181,2.34644 -0.88792,3.80887 2.56432,6.06295 3.45223,2.25407 9.4228,5.29981 17.26856,2.89076 7.84576,-2.40906 17.56672,-10.2729 23.02321,-18.33485 5.45649,-8.06195 6.64849,-16.32199 3.13744,-22.94619 -3.51105,-6.6242 -11.72514,-11.61253 -20.00177,-10.76739 z"
         id="path29"
         transform="matrix(0.79172748,-0.15027199,0.15027199,0.79172748,84.030096,162.19089)" /><use
         x="0"
         y="0"
         xlink:href="#g41"
         id="use41"
         transform="translate(404.19684,-16.29826)" /><use
         x="0"
         y="0"
         xlink:href="#g42"
         id="use42"
         transform="translate(407.68019,-5.7326241)"
         style="stroke:url(#swatch43)" /><path
         style="fill:url(#swatch9);fill-opacity:1;stroke:none;stroke-opacity:1"
         d="m 403.20062,227.57323 c -4.49666,-1.24947 -12.28067,-0.16292 -15.97047,2.27669 -3.68981,2.43961 -3.28541,6.23228 -1.05646,7.24618 2.22896,1.0139 6.28248,-0.75096 10.57695,-1.39783 4.29447,-0.64687 8.82988,-0.17575 10.49293,-1.73292 1.66304,-1.55718 0.45372,-5.14266 -4.04295,-6.39212 z"
         id="path44" /><path
         style="fill:url(#swatch9);fill-opacity:1;stroke:none;stroke-opacity:1"
         d="m 404.91194,231.40331 c -3.76324,-1.54826 -12.19918,-1.49394 -16.40509,0.18509 -4.20592,1.67903 -4.18182,4.98275 -0.41857,6.53101 3.76324,1.54827 11.26562,1.34108 15.47154,-0.33795 4.20592,-1.67902 5.11536,-4.82988 1.35212,-6.37815 z"
         id="path45"
         transform="translate(176.0212,-9.1270253)" /><path
         style="fill:url(#swatch9);fill-opacity:1;stroke:none;stroke-opacity:1"
         d="m 406.2158,230.83287 c -3.54593,-1.03215 -10.4607,-1.03215 -14.66662,0.64687 -4.20591,1.67903 -5.70298,5.03708 -2.15705,6.06923 3.54594,1.03216 12.13487,-0.26158 16.34079,-1.9406 4.20592,-1.67903 4.02881,-3.74334 0.48288,-4.7755 z"
         id="path46"
         transform="rotate(12.505488,615.31137,1625.2866)" /><path
         style="fill:url(#swatch9);fill-opacity:1;stroke:none;stroke-opacity:1"
         d="m 406.2158,230.83287 c -3.54593,-1.03215 -10.4607,-1.03215 -14.66662,0.64687 -4.20591,1.67903 -5.70298,5.03708 -2.15705,6.06923 3.54594,1.03216 12.13487,-0.26158 16.34079,-1.9406 4.20592,-1.67903 4.02881,-3.74334 0.48288,-4.7755 z"
         id="path48"
         transform="translate(391.15823,-17.602121)" /><path
         style="fill:url(#swatch9);fill-opacity:1;stroke:none;stroke-opacity:1"
         d="m 406.2158,230.83287 c -3.54593,-1.03215 -10.4607,-1.03215 -14.66662,0.64687 -4.20591,1.67903 -5.70298,5.03708 -2.15705,6.06923 3.54594,1.03216 12.13487,-0.26158 16.34079,-1.9406 4.20592,-1.67903 4.02881,-3.74334 0.48288,-4.7755 z"
         id="path50"
         transform="translate(575.65453,-13.690539)" /><path
         style="fill:url(#swatch9);fill-opacity:1;stroke:none;stroke-opacity:1"
         d="m 406.2158,230.83287 c -3.54593,-1.03215 -10.4607,-1.03215 -14.66662,0.64687 -4.20591,1.67903 -5.70298,5.03708 -2.15705,6.06923 3.54594,1.03216 12.13487,-0.26158 16.34079,-1.9406 4.20592,-1.67903 4.02881,-3.74334 0.48288,-4.7755 z"
         id="path52"
         transform="matrix(0.53431106,-0.19243528,-0.1185076,-0.86762617,445.20755,613.18443)" /><path
         style="fill:url(#swatch9);fill-opacity:1;stroke:none;stroke-opacity:1"
         d="m 403.20062,227.57323 c -4.49666,-1.24947 -12.28067,-0.16292 -15.97047,2.27669 -3.68981,2.43961 -3.28541,6.23228 -1.05646,7.24618 2.22896,1.0139 6.28248,-0.75096 10.57695,-1.39783 4.29447,-0.64687 8.82988,-0.17575 10.49293,-1.73292 1.66304,-1.55718 0.45372,-5.14266 -4.04295,-6.39212 z"
         id="path54"
         transform="matrix(0.77788055,0,0,0.71660802,33.897012,56.521387)" /><path
         id="path66"
         style="fill:url(#swatch13);fill-opacity:1;stroke:url(#swatch43)"
         d="m 299.12252,273.14501 c -1.71367,0.0439 -3.39381,0.14663 -4.91602,0.27148 -0.86049,0.0706 -1.66898,0.14751 -2.42383,0.24414 -0.19462,0.73291 -0.21985,1.61459 -0.0586,2.67774 0.78009,5.14315 5.91371,14.55224 9.37109,19.39258 1.24995,1.74993 2.28148,2.90161 3.20508,3.53125 2.07813,-3.02014 4.38511,-7.29784 6.38281,-11.35157 2.63146,-5.33973 4.72526,-10.28952 1.47071,-12.70312 -2.44092,-1.8102 -7.89027,-2.19434 -13.03125,-2.0625 z"
         transform="translate(-16.072729,8.3631064)" /><path
         id="path72"
         style="fill:url(#swatch13);stroke:#600348;stroke-opacity:1"
         d="m 573.41763,246.77439 c -1.13298,-0.0391 -2.26376,0.11902 -3.35207,0.48744 -2.97338,4.16105 -5.0179,10.41107 -5.39681,15.54479 -0.50934,6.90082 1.73812,15.20587 4.99875,20.23672 2.78708,4.30022 6.47764,6.81117 10.13209,5.79814 2.60263,-3.58204 4.72952,-8.83072 5.86791,-14.39852 1.64626,-8.05173 0.55655,-17.29071 -3.10005,-22.4024 -2.33453,-3.2635 -5.75088,-5.14903 -9.14982,-5.26617 z"
         transform="matrix(1.3640134,0,0,0.87750457,2.9180295,68.55426)" /></g></g></svg>
