<?xml version="1.0" encoding="UTF-8" standalone="no"?>
<!-- Created with Inkscape (http://www.inkscape.org/) -->

<svg
   width="118.96507"
   height="210.2747"
   viewBox="0 0 118.96507 210.27471"
   version="1.1"
   id="svg1"
   xml:space="preserve"
   sodipodi:docname="delta.svg"
   inkscape:version="1.4.2 (f4327f4, 2025-05-13)"
   xmlns:inkscape="http://www.inkscape.org/namespaces/inkscape"
   xmlns:sodipodi="http://sodipodi.sourceforge.net/DTD/sodipodi-0.dtd"
   xmlns="http://www.w3.org/2000/svg"
   xmlns:svg="http://www.w3.org/2000/svg"><sodipodi:namedview
     id="namedview1"
     pagecolor="#ffffff"
     bordercolor="#000000"
     borderopacity="0.25"
     inkscape:showpageshadow="2"
     inkscape:pageopacity="0.0"
     inkscape:pagecheckerboard="0"
     inkscape:deskcolor="#d1d1d1"
     inkscape:zoom="3.9614846"
     inkscape:cx="59.573626"
     inkscape:cy="105.13735"
     inkscape:window-width="1920"
     inkscape:window-height="1051"
     inkscape:window-x="-9"
     inkscape:window-y="-9"
     inkscape:window-maximized="1"
     inkscape:current-layer="layer1" /><defs
     id="defs1" /><g
     id="layer1"
     transform="translate(-651.2499,-321.94517)"><g
       id="g43"
       transform="translate(-143.82713,-137.37335)"><path
         style="fill:#000000;fill-opacity:0.02;stroke-width:0.100913"
         d="m 846.43251,669.49099 c -12.27771,-0.78145 -22.9602,-5.24583 -32.07992,-13.4067 -5.3889,-4.8223 -9.71426,-10.49154 -12.82143,-16.80502 -3.17789,-6.45717 -5.26027,-14.04219 -6.05347,-22.04957 -0.33025,-3.33391 -0.39895,-4.8307 -0.40062,-8.72901 -0.002,-4.08563 0.0674,-5.44103 0.45282,-8.88019 1.56752,-13.98549 7.30251,-26.11275 17.10554,-36.17158 11.2998,-11.59465 25.39437,-18.83579 41.9521,-21.55308 0.83223,-0.13657 1.53298,-0.26817 1.55724,-0.29243 0.14093,-0.14093 -5.59601,-6.0861 -9.17011,-9.50296 -4.20361,-4.01865 -5.50406,-5.21132 -12.13286,-11.12732 -7.77767,-6.94132 -13.42848,-12.69345 -16.65388,-16.95247 -4.0713,-5.37602 -5.93241,-10.7526 -5.94379,-17.17103 -0.0107,-6.07298 1.74177,-10.80723 5.59479,-15.11374 3.86414,-4.31895 10.56247,-8.03306 18.23651,-10.11182 5.46257,-1.47972 10.99721,-2.18779 17.9248,-2.29321 12.79713,-0.19475 24.08108,1.91643 33.80637,6.32501 4.10519,1.86093 7.2448,3.95298 9.64019,6.42366 2.10742,2.17366 3.30454,4.09676 4.18138,6.7172 1.0099,3.01802 1.0654,6.72138 0.14248,9.5076 -1.25212,3.78011 -4.33658,6.85275 -7.90964,7.87938 -3.7269,1.07082 -7.43165,0.0595 -11.79896,-3.22073 -2.3002,-1.72767 -4.26783,-3.61823 -7.57039,-7.27385 -3.95113,-4.37352 -8.94876,-9.17843 -12.02924,-11.56536 -4.18668,-3.24407 -7.93068,-4.87722 -12.95283,-5.65008 -1.73575,-0.26712 -5.59167,-0.36875 -7.61896,-0.20082 -6.00825,0.4977 -10.96281,2.23693 -14.78381,5.18963 -3.38668,2.6171 -5.28966,5.59061 -6.01645,9.40106 -0.20752,1.08796 -0.23253,3.44709 -0.0492,4.64201 0.65737,4.28501 2.84991,8.19142 6.68344,11.90778 4.45149,4.31543 12.51808,10.40012 28.49573,21.49454 17.02655,11.82276 28.69297,20.8352 35.20488,27.19615 5.53664,5.4083 10.15539,11.56904 14.04377,18.7323 4.37233,8.05484 6.96438,15.76717 8.06366,23.99253 0.46935,3.51184 0.51113,4.30335 0.5094,9.6492 -0.002,5.4581 -0.0633,6.50542 -0.61163,10.41838 -1.90737,13.61053 -7.73171,25.8678 -17.52221,36.87537 -11.24078,12.63813 -24.41295,19.84674 -39.23376,21.47105 -3.21066,0.35187 -7.12272,0.44665 -10.24193,0.24812 z m 11.21118,-9.27442 c 3.33884,-0.26459 6.19452,-1.02322 9.07163,-2.40993 2.87731,-1.3868 4.96212,-2.89365 7.47572,-5.40325 3.09945,-3.09451 5.28735,-6.13051 7.42166,-10.29855 3.55091,-6.93445 5.58781,-14.94296 6.40378,-25.17788 0.21614,-2.71102 0.30235,-9.97633 0.15096,-12.72097 -0.64716,-11.7322 -3.42784,-22.25109 -8.58607,-32.47967 -3.91746,-7.7682 -8.86475,-14.75086 -15.4296,-21.77751 -1.46883,-1.57216 -1.542,-1.63449 -1.85427,-1.5795 -9.59415,1.68972 -17.13229,4.8771 -23.36727,9.8805 -7.40177,5.9397 -12.629,14.6355 -15.34488,25.5271 -2.17579,8.72566 -2.93051,19.93355 -2.07256,30.77859 0.97686,12.34817 3.90953,22.18554 8.90479,29.87035 3.73592,5.74741 8.45222,10.33502 13.26545,12.9035 4.30938,2.2996 9.0373,3.27739 13.96066,2.88722 z"
         id="path9" /></g></g></svg>
